<svg id="Layer_1" data-name="Layer 1" xmlns="http://www.w3.org/2000/svg" viewBox="0 0 50 50"><title>icon_job_scan</title><g id="_751-eye-toolbar_2x.png" data-name="751-eye-toolbar@2x.png"><path d="M25,25a4.51,4.51,0,0,0,4.32-4.67A4.51,4.51,0,0,0,25,15.67a4.5,4.5,0,0,0-4.32,4.67A4.5,4.5,0,0,0,25,25Zm0-14C13.93,11,1.17,21.27,1.17,25S13.93,39,25,39,48.83,28.73,48.83,25,36.07,11,25,11Zm-8.49,4.19A23.48,23.48,0,0,1,25,13.34a23.38,23.38,0,0,1,8.49,1.85,11.05,11.05,0,0,1,1.26,5.15c0,5.8-4.36,10.5-9.75,10.5s-9.75-4.7-9.75-10.5A11.05,11.05,0,0,1,16.51,15.19ZM25,36.66c-9.75,0-21.4-9-21.4-11.66,0-1.65,4.39-5.66,10-8.52a13.66,13.66,0,0,0-.56,3.85c0,7.09,5.34,12.83,11.92,12.83s11.92-5.75,11.92-12.83a13.62,13.62,0,0,0-.56-3.86c5.64,2.86,10,6.87,10,8.52C46.4,27.69,34.75,36.65,25,36.66Z"/></g></svg>